<svg width="38" height="24" viewBox="0 0 38 24" fill="none" xmlns="http://www.w3.org/2000/svg">
<g clip-path="url(#clip0_205_2263)">
<path d="M34.3874 0H3.61312C3.48493 0 3.35651 0 3.22854 0.00067947C3.1205 0.00158543 3.01269 0.00271788 2.90466 0.00566225C2.66934 0.012004 2.43197 0.0260463 2.1996 0.0677205C1.96655 0.107648 1.74075 0.182074 1.52964 0.288548C1.10523 0.504411 0.76027 0.849374 0.544407 1.27378C0.437744 1.48497 0.363309 1.71095 0.32358 1.94419C0.281453 2.17679 0.267637 2.41393 0.261295 2.64903C0.258535 2.75697 0.256874 2.86493 0.256312 2.97291C0.255859 3.10065 0.255859 3.22884 0.255859 3.35726V20.6425C0.255859 20.7709 0.255859 20.8989 0.256312 21.0273C0.256992 21.1351 0.258351 21.2432 0.261295 21.3512C0.267637 21.5858 0.281679 21.8232 0.32358 22.0556C0.363227 22.2888 0.437586 22.5148 0.544181 22.726C0.651352 22.9369 0.791243 23.1296 0.958658 23.2967C1.12579 23.4642 1.31843 23.6041 1.52941 23.7112C1.7439 23.8206 1.96359 23.8902 2.19982 23.9325C2.43197 23.974 2.66934 23.988 2.90466 23.9943C3.01269 23.9968 3.1205 23.9982 3.22854 23.9989C3.35651 23.9998 3.48493 23.9998 3.61312 23.9998H34.3874C34.5154 23.9998 34.6438 23.9998 34.7718 23.9989C34.8796 23.9984 34.9874 23.9968 35.0959 23.9943C35.3308 23.988 35.5681 23.974 35.801 23.9325C36.0341 23.8925 36.2599 23.818 36.4709 23.7112C36.8951 23.4951 37.24 23.1502 37.4561 22.726C37.5655 22.5115 37.6348 22.2918 37.6767 22.0556C37.7189 21.8232 37.7325 21.5858 37.7388 21.3512C37.7417 21.2432 37.7433 21.1351 37.7438 21.0273C37.7447 20.8989 37.7447 20.7709 37.7447 20.6425V3.35749C37.7447 3.22907 37.7447 3.10087 37.7438 2.97268C37.7433 2.86478 37.7417 2.75689 37.7388 2.64903C37.7325 2.41393 37.7189 2.17679 37.6767 1.94419C37.6373 1.71091 37.5629 1.4849 37.4561 1.27378C37.2402 0.849448 36.8952 0.504513 36.4709 0.288548C36.2598 0.182184 36.034 0.107836 35.801 0.067947C35.5681 0.0260463 35.3308 0.0122305 35.0959 0.00588874C34.9879 0.00314533 34.8798 0.00148432 34.7718 0.000905959C34.6438 0 34.5154 0 34.3874 0Z" fill="#00234D"/>
<path d="M34.3863 0.799957L34.765 0.800637C34.8674 0.801316 34.97 0.802449 35.073 0.805167C35.2526 0.810149 35.4623 0.819888 35.658 0.854994C35.8279 0.88557 35.9706 0.932001 36.1074 1.00176C36.3812 1.14095 36.6036 1.3636 36.7425 1.63752C36.8118 1.77341 36.858 1.91519 36.8886 2.08665C36.9234 2.28007 36.9332 2.49048 36.9379 2.67099C36.9409 2.77291 36.9422 2.87483 36.9425 2.97902C36.9436 3.10517 36.9436 3.2311 36.9436 3.35748V20.6427C36.9436 20.7691 36.9436 20.895 36.9427 21.0237C36.9422 21.1256 36.9409 21.2275 36.9382 21.3295C36.9332 21.5097 36.9234 21.7201 36.8881 21.9158C36.8624 22.0715 36.8132 22.2223 36.742 22.3632C36.6028 22.6372 36.3801 22.8598 36.106 22.9989C35.9701 23.0682 35.8279 23.1146 35.6596 23.145C35.4601 23.1806 35.2413 23.1903 35.0766 23.1948C34.9731 23.1971 34.8701 23.1987 34.7643 23.1991C34.6386 23.2 34.5122 23.2 34.3863 23.2H3.607C3.48243 23.2 3.35786 23.2 3.23103 23.1991C3.1291 23.1987 3.02717 23.1973 2.92527 23.1951C2.75676 23.1905 2.53797 23.1806 2.34002 23.1452C2.18351 23.1191 2.03185 23.0695 1.89021 22.998C1.75434 22.929 1.63033 22.8388 1.52284 22.7307C1.41501 22.6231 1.32496 22.499 1.25604 22.3632C1.18486 22.2215 1.13553 22.07 1.10972 21.9136C1.07439 21.7181 1.06443 21.5086 1.0599 21.3297C1.05734 21.2274 1.05583 21.1251 1.05537 21.0228L1.05469 20.7222V3.27821L1.05514 2.97811C1.05561 2.87565 1.05712 2.77319 1.05967 2.67076C1.06465 2.49138 1.07439 2.28188 1.10995 2.08483C1.13581 1.92875 1.18514 1.77748 1.25626 1.63616C1.32512 1.50072 1.41481 1.37705 1.52352 1.26856C1.63127 1.16064 1.75541 1.07044 1.89134 1.00131C2.03264 0.93032 2.18382 0.880997 2.33979 0.854994C2.5357 0.819888 2.74566 0.810149 2.92549 0.805167C3.02787 0.802449 3.13047 0.801316 3.23216 0.800637L3.61198 0.799957H34.3863Z" fill="#FEFEFE"/>
<path d="M10.1087 8.10153C10.4267 7.70404 10.6423 7.1702 10.5854 6.62482C10.1202 6.64792 9.55266 6.93171 9.22379 7.32965C8.92868 7.67029 8.66753 8.22633 8.73548 8.74884C9.25777 8.79414 9.7796 8.48792 10.1087 8.10153Z" fill="#00234D"/>
<path d="M10.5804 8.85097C9.82162 8.80567 9.17703 9.2813 8.81487 9.2813C8.45249 9.2813 7.89782 8.87362 7.29784 8.88472C6.51713 8.89604 5.79282 9.3377 5.39646 10.0398C4.58155 11.4441 5.1813 13.5278 5.97401 14.6715C6.35882 15.2378 6.82267 15.8606 7.43374 15.8382C8.01129 15.8155 8.23755 15.4645 8.93922 15.4645C9.64066 15.4645 9.8445 15.8382 10.4558 15.8269C11.0895 15.8155 11.4859 15.2606 11.8707 14.6944C12.3123 14.0489 12.4928 13.4261 12.5042 13.3921C12.4928 13.3808 11.282 12.9162 11.2707 11.5233C11.2594 10.3569 12.2215 9.802 12.2668 9.7678C11.7235 8.96422 10.8746 8.87362 10.5801 8.85097" fill="#00234D"/>
<path d="M18.1419 7.27258C19.7903 7.27258 20.9384 8.40888 20.9384 10.0632C20.9384 11.7233 19.7668 12.8655 18.1007 12.8655H16.2757V15.7682H14.957V7.27258H18.1419ZM16.2757 11.7587H17.7886C18.9369 11.7587 19.5901 11.1406 19.5901 10.0691C19.5901 8.99776 18.9367 8.38533 17.7945 8.38533H16.2757V11.7587Z" fill="#00234D"/>
<path d="M21.2656 14.0077C21.2656 12.9185 22.0957 12.2946 23.6263 12.2003L25.2688 12.1002V11.6291C25.2688 10.9406 24.8156 10.5637 24.0091 10.5637C23.3437 10.5637 22.8608 10.905 22.7611 11.4289H21.5716C21.6072 10.3282 22.6431 9.52753 24.0444 9.52753C25.5515 9.52753 26.5347 10.3164 26.5347 11.541V15.768H25.3162V14.7495H25.2867C24.9393 15.4147 24.1738 15.8326 23.3437 15.8326C22.1193 15.8326 21.2656 15.1028 21.2656 14.0077ZM25.2688 13.4603V12.9833L23.803 13.0775C22.9786 13.1305 22.5491 13.4365 22.5491 13.9722C22.5491 14.4904 22.9965 14.826 23.697 14.826C24.5916 14.826 25.2688 14.2548 25.2688 13.4603Z" fill="#00234D"/>
<path d="M27.6554 18.0404V17.0221C27.7378 17.0336 27.9378 17.0454 28.0438 17.0454C28.6266 17.0454 28.9564 16.7985 29.1566 16.1623L29.2743 15.7857L27.043 9.60406H28.4205L29.9749 14.6199H30.0043L31.5585 9.60406H32.9009L30.5871 16.0975C30.0571 17.5872 29.4508 18.0759 28.1675 18.0759C28.0674 18.0759 27.7435 18.0641 27.6554 18.0404Z" fill="#00234D"/>
</g>
<defs>
<clipPath id="clip0_205_2263">
<rect width="38" height="24" fill="white"/>
</clipPath>
</defs>
</svg>
