<svg width="22" height="18" viewBox="0 0 22 18" fill="none" xmlns="http://www.w3.org/2000/svg">
<path d="M7.09375 0.65625L6.8125 1.10156C6.8125 1.10156 5.86621 2.55762 4.65625 4.21875C3.44629 5.87988 1.91992 7.76074 1.02344 8.39062L0.648438 8.64844L0.695312 9.09375L1.44531 15.8438L1.51562 16.5H2.19531C3.30859 16.5 4.60645 16.5586 5.89844 16.6406L6.69531 16.6875V10.5H8.19531V16.8047L8.875 16.875C10.9961 17.0625 12.6016 17.25 12.6016 17.25H12.7188L20.9219 15.6094L20.9453 15.0234C20.9453 15.0234 21.0127 13.7725 21.1328 12.3047C21.2529 10.8369 21.4492 9.11133 21.6484 8.48438L21.8125 7.96875L21.4141 7.66406C18.8271 5.66016 16.3516 1.14844 16.3516 1.14844L16.1172 0.679688L15.5781 0.75C15.5781 0.75 10.7588 1.41504 7.58594 0.773438L7.09375 0.65625ZM15.2969 2.29688C15.6045 2.86816 17.1221 5.58105 19.3047 7.73438L13.6562 8.625C11.8076 6.84961 9.92383 4.04297 8.89844 2.41406C11.8018 2.71289 14.667 2.38184 15.2969 2.29688ZM7.39844 2.90625C8.38281 4.49121 10.4482 7.60254 12.625 9.67969C12.1328 11.6865 11.9834 14.3613 11.9453 15.6797C11.4443 15.627 10.8408 15.5537 9.69531 15.4453V9H5.19531V15.1172C4.39551 15.0732 3.61914 15.0352 2.875 15.0234L2.24219 9.25781C3.45215 8.27344 4.74707 6.65625 5.875 5.10938C6.60742 4.10156 7.06445 3.41309 7.39844 2.90625ZM20.0312 9.16406C19.8555 10.0576 19.7207 11.1123 19.6328 12.1641C19.5361 13.3506 19.5127 14.001 19.4922 14.3906L13.4688 15.6094C13.5068 14.2881 13.6445 11.7891 14.0312 10.1016L20.0312 9.16406Z" fill="black"/>
</svg>
