<svg width="16" height="16" viewBox="0 0 16 16" fill="none" xmlns="http://www.w3.org/2000/svg">
<path d="M5.14062 2.64062L1.14062 6.64062L0.796875 7L1.14062 7.35938L5.14062 11.3594L5.85938 10.6406L2.21875 7L5.85938 3.35938L5.14062 2.64062ZM7.64062 2.64062L3.64062 6.64062L3.29688 7L3.64062 7.35938L7.64062 11.3594L8.35938 10.6406L5.21875 7.5H11.5C12.8867 7.5 14 8.61328 14 10C14 11.3867 12.8867 12.5 11.5 12.5V13.5C13.4277 13.5 15 11.9277 15 10C15 8.07227 13.4277 6.5 11.5 6.5H5.21875L8.35938 3.35938L7.64062 2.64062Z" fill="black"/>
</svg>
