<svg width="38" height="24" viewBox="0 0 38 24" fill="none" xmlns="http://www.w3.org/2000/svg">
<g clip-path="url(#clip0_205_2278)">
<path opacity="0.07" d="M35 0H3C1.3 0 0 1.3 0 3V21C0 22.7 1.4 24 3 24H35C36.7 24 38 22.7 38 21V3C38 1.3 36.6 0 35 0Z" fill="black"/>
<path d="M35 1C36.1 1 37 1.9 37 3V21C37 22.1 36.1 23 35 23H3C1.9 23 1 22.1 1 21V3C1 1.9 1.9 1 3 1H35Z" fill="#FEFEFE"/>
<path d="M18.0922 11.976V15.176H17.0742V7.27599H19.7652C20.0876 7.27053 20.408 7.32885 20.7078 7.44761C21.0076 7.56637 21.281 7.74322 21.5122 7.96799C21.7313 8.17238 21.9079 8.41794 22.0319 8.69062C22.156 8.96331 22.2251 9.25777 22.2354 9.55719C22.2456 9.8566 22.1967 10.1551 22.0915 10.4356C21.9863 10.7161 21.8268 10.9731 21.6222 11.192L21.5122 11.308C21.0422 11.755 20.4142 11.998 19.7652 11.982L18.0922 11.976ZM18.0922 8.24399V11.032H19.7902C20.1672 11.044 20.5312 10.897 20.7952 10.628C20.9841 10.4312 21.1109 10.1832 21.1598 9.91482C21.2088 9.64649 21.1779 9.36967 21.0708 9.11881C20.9637 8.86795 20.7852 8.65412 20.5575 8.50391C20.3298 8.3537 20.063 8.27374 19.7902 8.27399L18.0922 8.24399ZM24.5762 9.59199C25.2262 9.56199 25.8622 9.77999 26.3542 10.205C26.7992 10.635 27.0362 11.235 27.0042 11.854V15.188H26.0352V14.422H25.9862C25.8124 14.7093 25.5667 14.9463 25.2733 15.1096C24.9799 15.2728 24.649 15.3567 24.3132 15.353C23.7651 15.3707 23.2306 15.1803 22.8172 14.82C22.6213 14.6602 22.4644 14.458 22.3582 14.2286C22.252 13.9992 22.1993 13.7487 22.2042 13.496C22.1927 13.2406 22.2423 12.9861 22.3489 12.7537C22.4555 12.5214 22.6161 12.3178 22.8172 12.16C23.3106 11.8051 23.9078 11.624 24.5152 11.645C25.0322 11.625 25.5452 11.738 26.0052 11.976V11.768C26.0086 11.596 25.9728 11.4255 25.9006 11.2694C25.8283 11.1133 25.7215 10.9757 25.5882 10.867C25.3206 10.6236 24.9699 10.492 24.6082 10.499C24.3455 10.4965 24.0866 10.561 23.8558 10.6865C23.625 10.812 23.43 10.9942 23.2892 11.216L22.3942 10.652C22.6372 10.3038 22.9653 10.0236 23.3473 9.83804C23.7292 9.65249 24.1523 9.56779 24.5762 9.59199ZM23.2892 13.52C23.2868 13.6495 23.3163 13.7776 23.3751 13.8931C23.4338 14.0085 23.5201 14.1077 23.6262 14.182C23.8492 14.358 24.1262 14.451 24.4112 14.445C24.8402 14.444 25.2512 14.275 25.5572 13.973C25.8622 13.687 26.0352 13.288 26.0352 12.87C25.6503 12.5963 25.1825 12.4642 24.7112 12.496C24.3453 12.4816 23.9844 12.5846 23.6812 12.79C23.5611 12.8703 23.4626 12.9789 23.3943 13.1062C23.3259 13.2334 23.2899 13.3755 23.2892 13.52ZM32.5752 9.76999L29.1852 17.56H28.1372L29.4182 14.832L27.1942 9.76999H28.2972L29.9092 13.655L31.4782 9.76999H32.5752Z" fill="#5F6368"/>
<path d="M13.986 11.284C13.986 10.976 13.962 10.668 13.913 10.364H9.62305V12.111H12.074C12.0241 12.3887 11.9187 12.6534 11.7641 12.8893C11.6094 13.1252 11.4087 13.3275 11.174 13.484V14.618H12.638C13.0832 14.1873 13.4331 13.6681 13.6653 13.0938C13.8975 12.5196 14.0067 11.9031 13.986 11.284Z" fill="#4285F4"/>
<path d="M9.62817 15.721C10.7345 15.7514 11.8108 15.3591 12.6382 14.624L11.1722 13.484C10.8199 13.7099 10.4208 13.8524 10.0052 13.9008C9.58957 13.9492 9.16838 13.9022 8.77365 13.7634C8.37893 13.6245 8.02106 13.3975 7.72726 13.0996C7.43346 12.8016 7.21147 12.4406 7.07817 12.044H5.57617V13.214C5.95202 13.967 6.53022 14.6005 7.24593 15.0433C7.96164 15.4861 8.78655 15.7208 9.62817 15.721Z" fill="#34A853"/>
<path d="M7.07893 12.05C6.88872 11.4873 6.88872 10.8777 7.07893 10.315V9.14499H5.57693C5.25672 9.77644 5.08984 10.4745 5.08984 11.1825C5.08984 11.8905 5.25672 12.5885 5.57693 13.22L7.07893 12.05Z" fill="#FBBC04"/>
<path d="M9.62817 8.44C10.2752 8.42819 10.9006 8.67261 11.3682 9.12L12.6682 7.82701C11.8393 7.04902 10.7398 6.62466 9.60317 6.644C8.76654 6.6482 7.94741 6.88401 7.2366 7.32528C6.5258 7.76656 5.95108 8.39606 5.57617 9.144L7.07817 10.315C7.25379 9.77509 7.59426 9.30381 8.05168 8.96748C8.5091 8.63114 9.06045 8.44666 9.62817 8.44Z" fill="#EA4335"/>
</g>
<defs>
<clipPath id="clip0_205_2278">
<rect width="38" height="24" fill="white"/>
</clipPath>
</defs>
</svg>
