<svg width="38" height="24" viewBox="0 0 38 24" fill="none" xmlns="http://www.w3.org/2000/svg">
<g clip-path="url(#clip0_205_2242)">
<path opacity="0.07" d="M35 0H3C1.3 0 0 1.3 0 3V21C0 22.7 1.4 24 3 24H35C36.7 24 38 22.7 38 21V3C38 1.3 36.6 0 35 0Z" fill="black"/>
<path d="M35 1C36.1 1 37 1.9 37 3V21C37 22.1 36.1 23 35 23H3C1.9 23 1 22.1 1 21V3C1 1.9 1.9 1 3 1H35Z" fill="#2153A8"/>
<path d="M21.3811 9.71299C21.3811 11.381 20.2041 12.571 18.5601 12.571H17.0111C16.9855 12.5714 16.9606 12.5791 16.9393 12.5933C16.9181 12.6075 16.9013 12.6275 16.8911 12.651C16.8846 12.6665 16.8812 12.6832 16.8811 12.7V14.892C16.8811 14.909 16.8778 14.9259 16.8712 14.9416C16.8647 14.9573 16.8551 14.9716 16.843 14.9836C16.8309 14.9956 16.8166 15.005 16.8008 15.0115C16.785 15.0179 16.7682 15.0211 16.7511 15.021H15.6671C15.6326 15.021 15.5996 15.0073 15.5752 14.9829C15.5508 14.9585 15.5371 14.9255 15.5371 14.891V6.98599C15.5367 6.96024 15.5442 6.93497 15.5584 6.91353C15.5727 6.8921 15.5932 6.87552 15.6171 6.86599C15.633 6.85936 15.65 6.85596 15.6671 6.85599H18.5671C20.2041 6.85599 21.3811 8.04599 21.3811 9.71399V9.71299ZM20.0291 9.71299C20.0291 8.75499 19.3711 8.05499 18.4791 8.05499H17.0111C16.9941 8.05499 16.9771 8.05835 16.9614 8.06489C16.9456 8.07142 16.9313 8.081 16.9192 8.09307C16.9071 8.10514 16.8976 8.11947 16.891 8.13524C16.8845 8.15101 16.8811 8.16792 16.8811 8.18499V11.235C16.8809 11.2521 16.8842 11.2691 16.8907 11.2849C16.8973 11.3007 16.9069 11.315 16.9191 11.327C16.9312 11.3391 16.9455 11.3487 16.9613 11.3552C16.9771 11.3617 16.994 11.3651 17.0111 11.365H18.4791C19.3711 11.37 20.0291 10.67 20.0291 9.71299ZM21.7031 13.504C21.6917 13.2478 21.745 12.9929 21.8581 12.7627C21.9711 12.5325 22.1404 12.3345 22.3501 12.187C22.7731 11.871 23.4341 11.707 24.4051 11.673L25.4381 11.637V11.334C25.4381 10.727 25.0281 10.471 24.3701 10.471C23.7121 10.471 23.2951 10.702 23.2001 11.081C23.192 11.1076 23.1754 11.1308 23.1528 11.1471C23.1302 11.1634 23.1029 11.1718 23.0751 11.171H22.0531C22.025 11.1714 21.9975 11.1626 21.9748 11.146C21.9521 11.1294 21.9353 11.1059 21.9271 11.079C21.9217 11.0612 21.9203 11.0424 21.9231 11.024C22.0751 10.126 22.8271 9.44399 24.4171 9.44399C26.1091 9.44399 26.7201 10.227 26.7201 11.72V14.892C26.72 14.9091 26.7165 14.9261 26.7098 14.9419C26.703 14.9577 26.6933 14.972 26.681 14.984C26.6687 14.996 26.6542 15.0054 26.6383 15.0118C26.6223 15.0181 26.6053 15.0213 26.5881 15.021H25.5581C25.5236 15.021 25.4906 15.0073 25.4662 14.9829C25.4418 14.9585 25.4281 14.9255 25.4281 14.891V14.655C25.4285 14.6354 25.4228 14.6162 25.4119 14.5999C25.401 14.5837 25.3854 14.5711 25.3671 14.564C25.3491 14.5569 25.3294 14.5552 25.3104 14.5591C25.2914 14.563 25.2739 14.5723 25.2601 14.586C24.9501 14.92 24.4521 15.161 23.6531 15.161C22.4781 15.161 21.7031 14.554 21.7031 13.504ZM25.4381 12.817V12.571L24.0991 12.641C23.3941 12.677 22.9841 12.967 22.9841 13.457C22.9841 13.901 23.3601 14.147 24.0181 14.147C24.9111 14.147 25.4381 13.667 25.4381 12.817ZM27.7541 17.417V16.498C27.7544 16.4787 27.7589 16.4598 27.7674 16.4425C27.7759 16.4252 27.7881 16.41 27.8031 16.398C27.8181 16.3859 27.8355 16.3772 27.8541 16.3726C27.8728 16.3679 27.8922 16.3674 27.9111 16.371C28.0691 16.4 28.2291 16.415 28.3901 16.415C28.6659 16.4301 28.9387 16.3519 29.1646 16.193C29.3905 16.034 29.5562 15.8037 29.6351 15.539L29.7021 15.328C29.7121 15.2995 29.7121 15.2685 29.7021 15.24L27.5571 9.76899C27.5447 9.73897 27.544 9.70537 27.5551 9.67483C27.5662 9.64429 27.5883 9.61902 27.6171 9.60399C27.6362 9.59392 27.6575 9.58876 27.6791 9.58899H28.7191C28.7458 9.58906 28.7719 9.59722 28.7938 9.6124C28.8158 9.62757 28.8326 9.64905 28.8421 9.67399L30.2981 13.533C30.3071 13.5589 30.324 13.5813 30.3465 13.5971C30.3689 13.6129 30.3957 13.6213 30.4231 13.621C30.4505 13.621 30.4772 13.6125 30.4995 13.5967C30.5219 13.581 30.5389 13.5587 30.5481 13.533L31.8131 9.68499C31.8217 9.65846 31.8386 9.63539 31.8613 9.61919C31.884 9.60298 31.9113 9.5945 31.9391 9.59499H33.0151C33.0474 9.59518 33.0785 9.60702 33.1028 9.62833C33.127 9.64965 33.1428 9.679 33.1471 9.71099C33.1495 9.73233 33.1468 9.75394 33.1391 9.77399L30.8441 15.85C30.3161 17.263 29.4111 17.623 28.4141 17.623C28.2249 17.6282 28.036 17.606 27.8531 17.557C27.8225 17.5495 27.7955 17.5312 27.7772 17.5055C27.7588 17.4798 27.7503 17.4484 27.7531 17.417H27.7541ZM8.56913 6.39999C7.20462 6.38979 5.88755 6.9001 4.88613 7.82699C4.84351 7.86575 4.81692 7.91902 4.81155 7.97637C4.80619 8.03372 4.82244 8.09101 4.85713 8.13699L5.47513 8.97599C5.49515 9.00428 5.52116 9.02781 5.55131 9.04492C5.58145 9.06202 5.615 9.07227 5.64956 9.07494C5.68411 9.07762 5.71883 9.07264 5.75125 9.06038C5.78367 9.04812 5.81299 9.02887 5.83713 9.00399C6.19705 8.64659 6.6245 8.36438 7.09457 8.17381C7.56464 7.98324 8.06793 7.88812 8.57513 7.89399C10.6951 7.89399 11.8021 9.47799 11.8021 11.044C11.8021 12.744 10.6391 13.942 8.96713 13.965C7.67513 13.965 6.70113 13.115 6.70113 11.991C6.70223 11.7068 6.76683 11.4264 6.89019 11.1703C7.01354 10.9143 7.19255 10.689 7.41413 10.511C7.4613 10.4723 7.49125 10.4165 7.49744 10.3558C7.50362 10.2951 7.48553 10.2344 7.44713 10.187L6.79713 9.37199C6.7775 9.34693 6.75301 9.32611 6.72513 9.31076C6.69725 9.29541 6.66655 9.28586 6.63488 9.28268C6.60321 9.27951 6.57123 9.28277 6.54085 9.29228C6.51048 9.30178 6.48234 9.31733 6.45813 9.33799C6.06003 9.65733 5.73821 10.0615 5.51613 10.521C5.29484 10.9795 5.17966 11.4819 5.17913 11.991C5.17913 13.926 6.83413 15.443 8.95413 15.455H8.98413C11.5011 15.423 13.3211 13.571 13.3211 11.04C13.3211 8.79299 11.6541 6.39999 8.56913 6.39999Z" fill="#FEFEFE"/>
</g>
<defs>
<clipPath id="clip0_205_2242">
<rect width="38" height="24" fill="white"/>
</clipPath>
</defs>
</svg>
