<svg width="38" height="24" viewBox="0 0 38 24" fill="none" xmlns="http://www.w3.org/2000/svg">
<g clip-path="url(#clip0_205_2252)">
<path opacity="0.07" d="M35 0H3C1.3 0 0 1.3 0 3V21C0 22.7 1.4 24 3 24H35C36.7 24 38 22.7 38 21V3C38 1.3 36.6 0 35 0Z" fill="black"/>
<path d="M35 1C36.1 1 37 1.9 37 3V21C37 22.1 36.1 23 35 23H3C1.9 23 1 22.1 1 21V3C1 1.9 1.9 1 3 1H35Z" fill="#FEFEFE"/>
<path d="M23.9 8.3C24.1 7.3 23.9 6.6 23.3 6C22.7 5.3 21.6 5 20.2 5H16.1C15.8 5 15.6 5.2 15.5 5.5L14 15.6C14 15.8 14.1 16 14.3 16H17L17.4 12.6L19.2 10.4L23.9 8.3Z" fill="#003087"/>
<path d="M23.8996 8.29999L23.6996 8.49999C23.1996 11.3 21.4996 12.3 19.0996 12.3H17.9996C17.6996 12.3 17.4996 12.5 17.3996 12.8L16.7996 16.7L16.5996 17.7C16.5996 17.9 16.6996 18.1 16.8996 18.1H18.9996C19.2996 18.1 19.4996 17.9 19.4996 17.7V17.6L19.8996 15.2V15.1C19.8996 14.9 20.1996 14.7 20.3996 14.7H20.6996C22.7996 14.7 24.3996 13.9 24.7996 11.5C24.9996 10.5 24.8996 9.69999 24.3996 9.09999C24.2996 8.59999 24.0996 8.39999 23.8996 8.29999Z" fill="#3086C8"/>
<path d="M23.3004 8.09999C23.2004 7.99999 23.1004 7.99999 23.0004 7.99999C22.9004 7.99999 22.8004 7.99999 22.7004 7.89999C22.4004 7.79999 22.0004 7.79999 21.6004 7.79999H18.6004C18.5004 7.79999 18.4004 7.79999 18.4004 7.89999C18.2004 7.99999 18.1004 8.09999 18.1004 8.29999L17.4004 12.7V12.8C17.4004 12.5 17.7004 12.3 18.0004 12.3H19.3004C21.8004 12.3 23.4004 11.3 23.9004 8.49999V8.29999C23.8004 8.19999 23.6004 8.09999 23.4004 8.09999H23.3004Z" fill="#012169"/>
</g>
<defs>
<clipPath id="clip0_205_2252">
<rect width="38" height="24" fill="white"/>
</clipPath>
</defs>
</svg>
