<svg width="19" height="18" viewBox="0 0 19 18" fill="none" xmlns="http://www.w3.org/2000/svg">
<path d="M10.1399 2.96707e-05C4.61747 -0.0820016 0.184855 4.86331 1.1165 10.5235C1.74931 14.3643 4.90165 17.3848 8.75712 17.9063C11.3558 18.2578 13.7845 17.5078 15.6243 16.0313L14.6868 14.8594C13.1517 16.0899 11.1331 16.7256 8.94462 16.4297C5.75419 15.9991 3.13798 13.4649 2.6165 10.2891C1.83134 5.51077 5.49345 1.43265 10.1165 1.50003C14.0569 1.55862 17.3792 4.82523 17.4993 8.76565C17.5022 8.85062 17.4993 8.93265 17.4993 9.02347C17.4934 10.6758 16.1546 12 14.4993 12C13.6614 12 12.9993 11.3379 12.9993 10.5V4.50003H11.4993V5.08597C10.9602 4.71976 10.3186 4.50003 9.62431 4.50003C7.76982 4.50003 6.24931 6.02054 6.24931 7.87503V10.125C6.24931 11.9795 7.76982 13.5 9.62431 13.5C10.635 13.5 11.5345 13.0401 12.1556 12.3282C12.7063 13.0283 13.5472 13.5 14.4993 13.5C16.9632 13.5 18.9905 11.4903 18.9993 9.02347C18.9993 8.92386 19.0022 8.82718 18.9993 8.71878C18.8558 3.96683 14.8919 0.0703422 10.1399 2.96707e-05ZM9.62431 6.00003C10.6673 6.00003 11.4993 6.83206 11.4993 7.87503V10.125C11.4993 11.168 10.6673 12 9.62431 12C8.58134 12 7.74931 11.168 7.74931 10.125V7.87503C7.74931 6.83206 8.58134 6.00003 9.62431 6.00003Z" fill="#00234D"/>
</svg>
