<svg width="20" height="19" viewBox="0 0 20 19" fill="none" xmlns="http://www.w3.org/2000/svg">
<path d="M0.25 0.75V14.25H4V18.0586L8.76367 14.25H19.75V0.75H0.25ZM1.75 2.25H18.25V12.75H8.23633L5.5 14.9385V12.75H1.75V2.25ZM5.5 6C4.6709 6 4 6.6709 4 7.5C4 8.3291 4.6709 9 5.5 9C6.3291 9 7 8.3291 7 7.5C7 6.6709 6.3291 6 5.5 6ZM10 6C9.1709 6 8.5 6.6709 8.5 7.5C8.5 8.3291 9.1709 9 10 9C10.8291 9 11.5 8.3291 11.5 7.5C11.5 6.6709 10.8291 6 10 6ZM14.5 6C13.6709 6 13 6.6709 13 7.5C13 8.3291 13.6709 9 14.5 9C15.3291 9 16 8.3291 16 7.5C16 6.6709 15.3291 6 14.5 6Z" fill="#00234D"/>
</svg>
