<svg width="15" height="15" viewBox="0 0 15 15" fill="none" xmlns="http://www.w3.org/2000/svg">
<path d="M14.5312 7.375C14.5312 3.36133 11.2793 0.109375 7.26562 0.109375C3.25195 0.109375 0 3.36133 0 7.375C0 10.4805 1.9043 13.0879 4.59961 14.1426C4.54102 13.5859 4.48242 12.707 4.62891 12.0625C4.77539 11.5059 5.47852 8.45898 5.47852 8.45898C5.47852 8.45898 5.27344 8.01953 5.27344 7.375C5.27344 6.37891 5.85938 5.61719 6.5918 5.61719C7.20703 5.61719 7.5 6.08594 7.5 6.64258C7.5 7.25781 7.08984 8.19531 6.88477 9.07422C6.73828 9.77734 7.26562 10.3633 7.96875 10.3633C9.25781 10.3633 10.2539 9.01562 10.2539 7.05273C10.2539 5.29492 8.99414 4.09375 7.23633 4.09375C5.15625 4.09375 3.95508 5.64648 3.95508 7.22852C3.95508 7.87305 4.18945 8.54688 4.48242 8.89844C4.54102 8.95703 4.54102 9.04492 4.54102 9.10352C4.48242 9.33789 4.33594 9.83594 4.33594 9.92383C4.30664 10.0703 4.21875 10.0996 4.07227 10.041C3.16406 9.60156 2.60742 8.2832 2.60742 7.19922C2.60742 4.91406 4.27734 2.80469 7.41211 2.80469C9.93164 2.80469 11.8945 4.62109 11.8945 7.02344C11.8945 9.51367 10.3125 11.5352 8.11523 11.5352C7.38281 11.5352 6.67969 11.1543 6.44531 10.6855C6.44531 10.6855 6.09375 12.0918 6.00586 12.4141C5.83008 13.0586 5.39062 13.8496 5.09766 14.3184C5.77148 14.5527 6.50391 14.6406 7.26562 14.6406C11.2793 14.6406 14.5312 11.3887 14.5312 7.375Z" fill="black"/>
</svg>
