<svg width="24" height="24" viewBox="0 0 24 24" fill="none" xmlns="http://www.w3.org/2000/svg">
<path d="M9 0C7.08984 0 5.54297 1.38672 5.15625 3.1875C2.82422 3.60547 1 5.55078 1 8C1 8.24609 1.02734 8.46484 1.0625 8.6875C0.417969 9.63672 0 10.7539 0 12C0 13.7969 0.894531 15.3086 2.15625 16.4062C2.06641 16.7617 2 17.1172 2 17.5C2 19.9727 4.02734 22 6.5 22C6.52734 22 6.53906 22 6.5625 22C7.14453 23.1289 8.15234 24 9.5 24C10.4766 24 11.3633 23.5898 12 22.9375C12.6367 23.5898 13.5234 24 14.5 24C15.8477 24 16.8555 23.1289 17.4375 22C17.4609 22 17.4727 22 17.5 22C19.8477 22 21.7734 20.1719 21.9688 17.875H22C22 17.8125 21.9727 17.75 21.9688 17.6875C21.9727 17.625 22 17.5625 22 17.5C22 17.1289 21.8672 16.8125 21.7812 16.4688C23.0781 15.3672 24 13.8281 24 12C24 10.7539 23.582 9.63672 22.9375 8.6875C22.9727 8.46484 23 8.24609 23 8C23 5.55078 21.1758 3.60547 18.8438 3.1875C18.457 1.38672 16.9102 0 15 0C13.8008 0 12.7344 0.558594 12 1.40625C11.2656 0.558594 10.1992 0 9 0ZM9 2C10.1172 2 11 2.88281 11 4V6C11 7.66797 9.66797 9 8 9V11C9.13281 11 10.1602 10.6094 11 9.96875V20.5C11 21.3398 10.3398 22 9.5 22C8.75391 22 8.15625 21.4844 8.03125 20.7812L7.84375 19.8125L6.875 19.9688C6.69922 19.9961 6.58984 20 6.5 20C5.10938 20 4 18.8906 4 17.5C4 17.1914 4.05078 16.9023 4.15625 16.625C4.16406 16.6016 4.17969 16.5859 4.1875 16.5625C4.49609 15.793 5.16797 15.2305 6 15.0625L5.59375 13.0938C4.55078 13.3047 3.64453 13.8594 3 14.6562C2.37109 13.9531 2 13.0234 2 12C2 11.0625 2.32031 10.2266 2.875 9.53125L3.1875 9.15625L3.09375 8.65625C3.03906 8.42188 3 8.21484 3 8C3 6.33203 4.33203 5 6 5H7V4C7 2.88281 7.88281 2 9 2ZM15 2C16.1172 2 17 2.88281 17 4V5H18C19.668 5 21 6.33203 21 8C21 8.21484 20.9609 8.42188 20.9062 8.65625L20.8125 9.15625L21.125 9.53125C21.6797 10.2266 22 11.0625 22 12C22 13.1992 21.4883 14.2695 20.6562 15C19.9727 14.3945 19.1016 14 18.125 14C17.1797 14 16.3281 14.3359 15.6562 14.9062L16.9375 16.4375C17.2617 16.1641 17.6602 16 18.125 16C19.0898 16 19.8594 16.7227 19.9688 17.6562C19.8867 18.9727 18.8359 20 17.5 20C17.4102 20 17.3008 19.9961 17.125 19.9688L16.1562 19.8125L15.9688 20.7812C15.8438 21.4844 15.2461 22 14.5 22C13.6602 22 13 21.3398 13 20.5V9.96875C13.8398 10.6094 14.8672 11 16 11V9C14.332 9 13 7.66797 13 6V4C13 2.88281 13.8828 2 15 2Z" fill="black"/>
</svg>
