<svg width="27" height="25" viewBox="0 0 27 25" fill="none" xmlns="http://www.w3.org/2000/svg">
<path d="M14 0V1.18945C13.855 1.24195 13.7141 1.30611 13.5801 1.37891C13.3121 1.52449 13.0691 1.70855 12.8574 1.92383C12.6457 2.1391 12.4654 2.38465 12.3262 2.6543C12.1173 3.05877 12 3.51625 12 4C12 4.205 12.0221 4.40547 12.0625 4.59961C12.1433 4.98789 12.3005 5.35039 12.5176 5.66992C12.6261 5.82969 12.7485 5.97898 12.8848 6.11523C13.021 6.25148 13.1703 6.37391 13.3301 6.48242C13.8094 6.80797 14.385 7 15 7C15.1425 7 15.276 7.02695 15.3965 7.07617C15.517 7.12539 15.6235 7.19773 15.7129 7.28711C15.8023 7.37648 15.8746 7.48305 15.9238 7.60352C15.973 7.72398 16 7.8575 16 8C16 8.4275 15.7579 8.77617 15.3965 8.92383C15.276 8.97305 15.1425 9 15 9C14.8575 9 14.724 8.97305 14.6035 8.92383C14.483 8.87461 14.3765 8.80227 14.2871 8.71289C14.1977 8.62352 14.1254 8.51695 14.0762 8.39648C14.027 8.27602 14 8.1425 14 8H12C12 8.16125 12.0138 8.32025 12.0391 8.47461C12.0643 8.62897 12.1 8.77828 12.1484 8.92383C12.2938 9.36047 12.5398 9.75326 12.8574 10.0762C12.9633 10.1838 13.0763 10.2838 13.1973 10.375C13.3182 10.4662 13.4461 10.5483 13.5801 10.6211C13.7141 10.6939 13.855 10.758 14 10.8105V12H16V10.8105C17.16 10.3905 18 9.29 18 8C18 6.565 16.9586 5.34523 15.5996 5.0625C15.4055 5.02211 15.205 5 15 5C14.8575 5 14.724 4.97305 14.6035 4.92383C14.483 4.87461 14.3765 4.80227 14.2871 4.71289C14.1977 4.62352 14.1254 4.51695 14.0762 4.39648C14.027 4.27602 14 4.1425 14 4C14 3.8575 14.027 3.72398 14.0762 3.60352C14.1254 3.48305 14.1977 3.37648 14.2871 3.28711C14.4659 3.10836 14.715 3 15 3C15.57 3 16 3.43 16 4H18C18 3.83875 17.9862 3.67975 17.9609 3.52539C17.9357 3.37104 17.9 3.22172 17.8516 3.07617C17.5609 2.20289 16.87 1.50445 16 1.18945V0H14ZM7.51562 14C6.48462 14.004 5.69922 14.2656 5.69922 14.2656L5.67969 14.2734L0.0078125 16.4492L1.99219 22.0195L6.92188 20.1289L14.0586 24.0586L26.3828 18.9531L25.6172 17.1094L14.1797 21.8438L7.07812 17.9336L3.1875 19.4219L2.54688 17.6172L6.34375 16.1602C6.35275 16.1562 6.81962 16 7.51562 16C8.21863 16 9.03828 16.1561 9.73828 16.7891L9.75195 16.7969L9.75586 16.8008C10.7869 17.6958 11.5645 18.3212 12.6465 18.6602C13.7285 19.0002 14.9559 19.0392 17.0059 19.0312L16.9961 17.0312C14.9841 17.0392 13.9331 16.968 13.2461 16.75C12.5581 16.539 12.0701 16.1598 11.0781 15.3008L11.0664 15.293C9.90941 14.254 8.53463 13.996 7.51562 14Z" fill="black"/>
</svg>
