<svg width="26" height="26" viewBox="0 0 26 26" fill="none" xmlns="http://www.w3.org/2000/svg">
<path d="M10 0.000183105C15.5117 0.000183105 20 4.48846 20 10.0002C20 12.3947 19.1602 14.59 17.75 16.3127L25.7188 24.2814L24.2812 25.7189L16.3125 17.7502C14.5898 19.1603 12.3945 20.0002 10 20.0002C4.48828 20.0002 0 15.5119 0 10.0002C0 4.48846 4.48828 0.000183105 10 0.000183105ZM10 2.00018C5.57031 2.00018 2 5.5705 2 10.0002C2 14.4299 5.57031 18.0002 10 18.0002C14.4297 18.0002 18 14.4299 18 10.0002C18 5.5705 14.4297 2.00018 10 2.00018Z" fill="black"/>
</svg>
