<svg width="26" height="27" viewBox="0 0 26 27" fill="none" xmlns="http://www.w3.org/2000/svg">
<path d="M10 0C6.1 0 3 3.1 3 7C3 9.4375 4.20996 11.5615 6.07031 12.8125C2.51001 14.3473 0 17.8936 0 22H2C2 17.6 5.6 14 10 14C13.9 14 17 10.9 17 7C17 3.1 13.9 0 10 0ZM10 2C12.8 2 15 4.2 15 7C15 9.8 12.8 12 10 12C7.2 12 5 9.8 5 7C5 4.2 7.2 2 10 2ZM18.0996 13V15.0996C17.4996 15.1996 16.9004 15.5008 16.4004 15.8008L14.9004 14.3008L13.5 15.6992L15 17.1992C14.6 17.6992 14.4008 18.3 14.3008 19H12V21H14.0996C14.1996 21.6 14.5008 22.2008 14.8008 22.8008L13.3008 24.3008L14.6992 25.6992L16.1992 24.1992C16.6992 24.4992 17.3004 24.8004 17.9004 24.9004V27H19.9004V24.9004C20.5004 24.8004 21.0996 24.4992 21.5996 24.1992L23.0996 25.6992L24.5 24.3008L23 22.8008C23.4 22.3008 23.5992 21.7 23.6992 21H26V19H23.9004C23.8004 18.4 23.4992 17.7992 23.1992 17.1992L24.6992 15.6992L23.3008 14.3008L21.8008 15.8008C21.3008 15.5008 20.6996 15.1996 20.0996 15.0996V13H18.0996ZM19 17C20.7 17 22 18.3 22 20C22 21.7 20.7 23 19 23C17.3 23 16 21.7 16 20C16 18.3 17.3 17 19 17ZM19 19C18.875 19 18.75 19.0312 18.6328 19.0859C18.5156 19.1406 18.4062 19.2188 18.3125 19.3125C18.2188 19.4062 18.1406 19.5156 18.0859 19.6328C18.0312 19.75 18 19.875 18 20C18 20.375 18.2812 20.75 18.6328 20.9141C18.75 20.9688 18.875 21 19 21C19.5 21 20 20.5 20 20C20 19.5 19.5 19 19 19Z" fill="black"/>
</svg>
