<svg width="20" height="20" viewBox="0 0 20 20" fill="none" xmlns="http://www.w3.org/2000/svg">
<path d="M7.75 0.250183C11.8838 0.250183 15.25 3.61639 15.25 7.75018C15.25 9.54608 14.6201 11.1926 13.5625 12.4846L19.5391 18.4611L18.4609 19.5392L12.4844 13.5627C11.1924 14.6203 9.5459 15.2502 7.75 15.2502C3.61621 15.2502 0.25 11.884 0.25 7.75018C0.25 3.61639 3.61621 0.250183 7.75 0.250183ZM7.75 1.75018C4.42773 1.75018 1.75 4.42792 1.75 7.75018C1.75 11.0724 4.42773 13.7502 7.75 13.7502C11.0723 13.7502 13.75 11.0724 13.75 7.75018C13.75 4.42792 11.0723 1.75018 7.75 1.75018Z" fill="black"/>
</svg>
